<svg xmlns="http://www.w3.org/2000/svg" viewBox="0 0 64 64" role="img" aria-label="PsychDeep"><defs><linearGradient id="fg" gradientUnits="userSpaceOnUse" x1="0" y1="3" x2="0" y2="61"><stop offset="0%" stop-color="#7fd8c2"/><stop offset="46%" stop-color="#6c98f4"/><stop offset="100%" stop-color="#2f4f9e"/></linearGradient><clipPath id="fc"><circle cx="32.0" cy="32.0" r="29.0"/></clipPath></defs><g transform="translate(0.00 0.00) scale(1.0)"><g clip-path="url(#fc)" fill="none" stroke="url(#fg)" stroke-width="3.2" stroke-linecap="round"><path d="M -6.08 10.00 C -0.75 10.00, 4.59 10.00, 9.92 10.00 C 15.25 10.00, 20.59 10.00, 25.92 10.00 C 31.25 10.00, 36.59 10.00, 41.92 10.00 C 47.25 10.00, 52.59 10.00, 57.92 10.00 C 63.25 10.00, 68.59 10.00, 73.92 10.00" opacity="0.62"/><path d="M -6.72 18.63 C -1.39 18.63, 3.95 16.03, 9.28 16.03 C 14.61 16.03, 19.95 18.63, 25.28 18.63 C 30.61 18.63, 35.95 16.03, 41.28 16.03 C 46.61 16.03, 51.95 18.63, 57.28 18.63 C 62.61 18.63, 67.95 16.03, 73.28 16.03" opacity="0.747"/><path d="M -7.36 26.92 C -2.03 26.92, 3.31 22.42, 8.64 22.42 C 13.97 22.42, 19.31 26.92, 24.64 26.92 C 29.97 26.92, 35.31 22.42, 40.64 22.42 C 45.97 22.42, 51.31 26.92, 56.64 26.92 C 61.97 26.92, 67.31 22.42, 72.64 22.42" opacity="0.873"/><path d="M -8.00 34.60 C -2.67 34.60, 2.67 29.40, 8.00 29.40 C 13.33 29.40, 18.67 34.60, 24.00 34.60 C 29.33 34.60, 34.67 29.40, 40.00 29.40 C 45.33 29.40, 50.67 34.60, 56.00 34.60 C 61.33 34.60, 66.67 29.40, 72.00 29.40" opacity="1.0"/><path d="M -8.64 41.58 C -3.31 41.58, 2.03 37.08, 7.36 37.08 C 12.69 37.08, 18.03 41.58, 23.36 41.58 C 28.69 41.58, 34.03 37.08, 39.36 37.08 C 44.69 37.08, 50.03 41.58, 55.36 41.58 C 60.69 41.58, 66.03 37.08, 71.36 37.08 C 76.69 37.08, 82.03 41.58, 87.36 41.58" opacity="0.873"/><path d="M -9.28 47.97 C -3.95 47.97, 1.39 45.37, 6.72 45.37 C 12.05 45.37, 17.39 47.97, 22.72 47.97 C 28.05 47.97, 33.39 45.37, 38.72 45.37 C 44.05 45.37, 49.39 47.97, 54.72 47.97 C 60.05 47.97, 65.39 45.37, 70.72 45.37 C 76.05 45.37, 81.39 47.97, 86.72 47.97" opacity="0.747"/><path d="M -9.92 54.00 C -4.59 54.00, 0.75 54.00, 6.08 54.00 C 11.41 54.00, 16.75 54.00, 22.08 54.00 C 27.41 54.00, 32.75 54.00, 38.08 54.00 C 43.41 54.00, 48.75 54.00, 54.08 54.00 C 59.41 54.00, 64.75 54.00, 70.08 54.00 C 75.41 54.00, 80.75 54.00, 86.08 54.00" opacity="0.62"/></g></g></svg>